<svg version="1.1" xmlns="http://www.w3.org/2000/svg" xmlns:xlink="http://www.w3.org/1999/xlink" x="0px" y="0px" width="848px" height="1244px" viewBox="0 0 848 1244" enable-background="new 0 0 848 1244" xml:space="preserve">
  <path fill="#FFFFFF" d="M788,1244H60c-33.137,0-60-26.863-60-60V60C0,26.863,26.863,0,60,0 h728c33.137,0,60,26.863,60,60v1124C848,1217.137,821.137,1244,788,1244z"/>
  <path fill="#E8E8E8" d="M788,1244H60c-33.137,0-60-26.863-60-60V60C0,26.863,26.863,0,60,0 h728c33.137,0,60,26.863,60,60v1124C848,1217.137,821.137,1244,788,1244z M424,1224c19.33,0,35-15.67,35-35c0-19.33-15.67-35-35-35 c-19.33,0-35,15.67-35,35C389,1208.33,404.67,1224,424,1224z M808,110H40v1024h768V110z"/>
</svg>
