<svg version="1.1" xmlns="http://www.w3.org/2000/svg" xmlns:xlink="http://www.w3.org/1999/xlink" x="0px" y="0px" width="454px" height="916px" viewBox="0 0 454 916" enable-background="new 0 0 454 916" xml:space="preserve">
  <path fill="#FFFFFF" d="M50,0h354c27.614,0,50,22.386,50,50v816c0,27.614-22.386,50-50,50 H50c-27.614,0-50-22.386-50-50V50C0,22.386,22.386,0,50,0z"/>
  <path fill="#E8E8E8" d="M404,916H50c-27.614,0-50-22.386-50-50V50C0,22.386,22.386,0,50,0 h354c27.614,0,50,22.386,50,50v816C454,893.614,431.614,916,404,916z M227,903c17.673,0,32-14.327,32-32s-14.327-32-32-32 s-32,14.327-32,32S209.327,903,227,903z M434,90H20v736h414V90z"/>
</svg>
