<svg version="1.1" xmlns="http://www.w3.org/2000/svg" xmlns:xlink="http://www.w3.org/1999/xlink" x="0px" y="0px" width="847px" height="415px" viewBox="0 0 847 415" enable-background="new 0 0 847 415" xml:space="preserve">
  <path fill="#FFFFFF" d="M50,0h747c27.614,0,50,22.386,50,50v315c0,27.614-22.386,50-50,50H50c-27.614,0-50-22.386-50-50V50 C0,22.386,22.386,0,50,0z"/>
  <path fill="#E8E8E8" d="M797,0H50C22.386,0,0,22.386,0,50v315c0,27.614,22.386,50,50,50h747c27.614,0,50-22.386,50-50V50 C847,22.386,824.614,0,797,0z M757,395H90V20h667V395z M802,239c-17.672,0-32-14.326-32-32s14.328-32,32-32 c17.674,0,32,14.326,32,32S819.674,239,802,239z"/>
</svg>
